<svg height="511pt" viewBox="-11 0 511 511.998" width="511pt" xmlns="http://www.w3.org/2000/svg"><path d="m266.699219 115.433594h-1.695313c-9.796875 0-17.765625 7.972656-17.765625 17.769531v90.503906h35.535157v-92.199219c0-8.863281-7.210938-16.074218-16.074219-16.074218zm0 0"/><path d="m348.308594 223.703125v-73.742187c0-9.796876-7.972656-17.765626-17.769532-17.765626-9.796874 0-17.765624 7.96875-17.765624 17.765626v73.742187zm0 0"/><path d="m199.46875 132.195312c-9.796875 0-17.769531 7.96875-17.769531 17.765626v110.445312c0 9.796875 7.972656 17.769531 17.769531 17.769531.144531 0 .28125-.019531.425781-.023437-.59375-3.386719-.921875-6.867188-.921875-10.425782 0-14.660156 7.210938-27.660156 18.261719-35.664062v-82.101562c.003906-9.796876-7.96875-17.765626-17.765625-17.765626zm0 0"/><path d="m437.925781 170.144531 5.203125-81.210937-78.859375-20.101563-43.46875-68.832031-75.625 30.152344-75.628906-30.152344-43.464844 68.832031-78.859375 20.101563 5.203125 81.210937-51.925781 62.632813 55.730469 67.21875h29.933593v-128.035156c0-26.339844 21.429688-47.769532 47.769532-47.769532 8.042968 0 15.621094 2.007813 22.277344 5.535156 7.632812-16.25 24.148437-27.53125 43.257812-27.53125 8.917969 0 17.269531 2.460938 24.417969 6.734376 8.328125-14.050782 23.636719-23.496094 41.117187-23.496094h1.695313c17.078125 0 32.003906 9.347656 39.960937 23.183594 7.03125-4.074219 15.183594-6.421876 23.882813-6.421876 26.335937 0 47.765625 21.425782 47.765625 47.765626v73.742187h2.835937c19.824219 0 35.949219 16.128906 35.949219 35.953125v40.339844h17.027344l55.730468-67.222656zm0 0"/><path d="m133.929688 154.191406c-9.796876 0-17.765626 7.972656-17.765626 17.769532v88.445312c0 9.796875 7.96875 17.769531 17.765626 17.769531 9.800781 0 17.769531-7.972656 17.769531-17.769531v-88.445312c0-9.796876-7.96875-17.769532-17.769531-17.769532zm0 0"/><path d="m380.398438 253.703125h-137.351563c-7.691406 0-13.945313 6.257813-13.945313 13.945313 0 16.492187 13.421876 29.914062 29.914063 29.914062h73.808594v42.535156l-7.011719 4.378906c-.277344.179688-31.871094 20.523438-31.871094 47.761719h-29.828125c0-30.527343 21.320313-53.378906 34.914063-64.847656h-40.011719c-18.390625 0-34.859375-8.359375-45.824219-21.46875-4.257812 1.261719-8.761718 1.9375-13.421875 1.9375-12.605469 0-24.070312-4.941406-32.582031-12.980469-8.511719 8.039063-19.976562 12.980469-32.578125 12.980469-6.242187 0-12.203125-1.21875-17.667969-3.417969v92.125c0 30.699219 24.976563 55.675782 55.671875 55.675782h27.152344v29.824218h-27.148437c-5.324219 0-10.523438-.511718-15.578126-1.445312v31.375h170.632813v-31.472656c-5.882813 1.011718-11.925781 1.542968-18.09375 1.542968h-12.070313v-29.824218h12.070313c42.3125 0 76.734375-34.425782 76.734375-76.738282v-115.882812c.003906-3.261719-2.652344-5.917969-5.914062-5.917969zm0 0"/></svg>